<?xml version="1.0" encoding="UTF-8" standalone="no"?>
<!-- Created with Inkscape (http://www.inkscape.org/) -->

<svg
   version="1.1"
   id="svg41"
   xml:space="preserve"
   width="110"
   height="112.07095"
   viewBox="0 0 110 112.07095"
   sodipodi:docname="ababeel-soft-logo.svg"
   inkscape:version="1.1.2 (b8e25be8, 2022-02-05)"
   xmlns:inkscape="http://www.inkscape.org/namespaces/inkscape"
   xmlns:sodipodi="http://sodipodi.sourceforge.net/DTD/sodipodi-0.dtd"
   xmlns="http://www.w3.org/2000/svg"
   xmlns:svg="http://www.w3.org/2000/svg"><sodipodi:namedview
     id="namedview137"
     pagecolor="#ffffff"
     bordercolor="#999999"
     borderopacity="1"
     inkscape:pageshadow="0"
     inkscape:pageopacity="0"
     inkscape:pagecheckerboard="0"
     showgrid="false"
     fit-margin-top="5"
     fit-margin-left="5"
     fit-margin-right="5"
     fit-margin-bottom="5"
     lock-margins="true"
     inkscape:zoom="0.81794666"
     inkscape:cx="261.01947"
     inkscape:cy="168.71516"
     inkscape:window-width="1280"
     inkscape:window-height="674"
     inkscape:window-x="0"
     inkscape:window-y="305"
     inkscape:window-maximized="0"
     inkscape:current-layer="svg41" /><defs
     id="defs45"><clipPath
       clipPathUnits="userSpaceOnUse"
       id="clipPath55"><path
         d="M 0,180 H 180 V 0 H 0 Z"
         id="path53" /></clipPath></defs><g
     id="g47"
     transform="matrix(0.64424769,0,0,-0.64424769,-2.982293,114.01777)"><g
       id="g51"
       clip-path="url(#clipPath55)"
       style="display:inline"
       transform="matrix(2.5303176,0,0,2.5303176,-248.62127,-137.72895)"><g
         id="text"
         style="display:none"><g
           id="g57"
           transform="translate(95.0074,85.0648)"><path
             d="m 0,0 h 1.074 c 0.277,0 0.515,-0.094 0.716,-0.282 0.198,-0.191 0.297,-0.421 0.297,-0.7 v -9.254 H 0 Z M 2.668,24.618 H 1.047 c -0.329,0.038 -0.597,0.144 -0.708,0.457 -0.588,1.457 1.839,0.105 1.692,1.457 -0.662,0.312 -1.765,0.104 -2.207,-0.312 -0.22,-0.313 -0.22,-0.521 -0.294,-1.04 -0.025,-0.284 -0.084,-0.44 -0.187,-0.562 h -0.481 c -0.148,0 -0.269,-0.121 -0.269,-0.268 0,-0.149 0.121,-0.27 0.269,-0.27 h 1.936 c 0.323,-0.016 0.649,-0.018 0.943,0 h 0.927 c 0.148,0 0.27,0.121 0.27,0.27 0,0.147 -0.122,0.268 -0.27,0.268 M -6.998,-7.799 h 1.488 c -0.219,-0.833 -0.635,-1.468 -1.249,-1.904 -0.615,-0.457 -1.389,-0.686 -2.321,-0.686 -1.129,0 -2.015,0.368 -2.65,1.102 -0.637,0.714 -0.955,1.734 -0.955,3.064 0,1.27 0.308,2.26 0.924,2.973 0.637,0.734 1.521,1.103 2.651,1.103 1.191,0 2.112,-0.357 2.767,-1.07 0.635,-0.731 0.952,-1.752 0.952,-3.059 v -0.205 -0.12 c 0,-0.099 -0.01,-0.168 -0.03,-0.209 h -5.146 c 0.02,-0.619 0.168,-1.078 0.446,-1.378 0.257,-0.32 0.645,-0.479 1.161,-0.479 0.337,0 0.624,0.07 0.863,0.21 0.058,0.018 0.114,0.054 0.162,0.104 0.051,0.048 0.104,0.104 0.165,0.165 0.018,0.059 0.094,0.14 0.221,0.239 0.13,0.099 0.315,0.15 0.551,0.15 m -3.569,2.33 h 3.034 c -0.038,0.533 -0.178,0.929 -0.417,1.186 -0.257,0.277 -0.624,0.414 -1.099,0.414 -0.437,0 -0.795,-0.137 -1.072,-0.414 -0.278,-0.277 -0.426,-0.673 -0.446,-1.186 m -8.841,-2.33 h 1.488 c -0.219,-0.833 -0.635,-1.468 -1.25,-1.904 -0.614,-0.457 -1.388,-0.686 -2.32,-0.686 -1.13,0 -2.016,0.368 -2.651,1.102 -0.637,0.714 -0.954,1.734 -0.954,3.064 0,1.27 0.307,2.26 0.924,2.973 0.637,0.734 1.521,1.103 2.65,1.103 1.191,0 2.113,-0.357 2.768,-1.07 0.634,-0.731 0.952,-1.752 0.952,-3.059 v -0.205 -0.12 c 0,-0.099 -0.011,-0.168 -0.031,-0.209 h -5.146 c 0.02,-0.619 0.167,-1.078 0.447,-1.378 0.257,-0.32 0.645,-0.479 1.16,-0.479 0.338,0 0.625,0.07 0.863,0.21 0.059,0.018 0.114,0.054 0.163,0.104 0.051,0.048 0.104,0.104 0.165,0.165 0.018,0.059 0.094,0.14 0.221,0.239 0.129,0.099 0.314,0.15 0.551,0.15 m -3.57,2.33 h 3.034 c -0.038,0.533 -0.178,0.929 -0.416,1.186 -0.257,0.277 -0.625,0.414 -1.1,0.414 -0.436,0 -0.794,-0.137 -1.071,-0.414 -0.28,-0.277 -0.427,-0.673 -0.447,-1.186 m -12.705,4.487 -0.003,-2.384 c 0.216,0.375 0.534,0.682 0.95,0.921 0.358,0.198 0.795,0.298 1.31,0.298 0.932,0 1.694,-0.387 2.29,-1.162 0.594,-0.773 0.891,-1.774 0.891,-3.005 0,-1.229 -0.297,-2.229 -0.891,-3.003 -0.297,-0.378 -0.7,-0.651 -1.206,-0.818 -0.505,-0.17 -1.005,-0.254 -1.5,-0.254 -0.952,0 -1.836,0.249 -2.648,0.744 -0.813,0.498 -1.219,1.45 -1.219,2.859 V 0.03 h 1.013 c 0.279,0 0.516,-0.098 0.716,-0.297 0.198,-0.2 0.297,-0.436 0.297,-0.715 m 3.382,-5.244 c 0,0.716 -0.147,1.273 -0.445,1.671 -0.296,0.416 -0.703,0.624 -1.215,0.624 -0.554,0 -0.98,-0.197 -1.278,-0.596 -0.297,-0.416 -0.444,-0.983 -0.444,-1.699 0,-0.832 0.14,-1.439 0.416,-1.817 0.295,-0.416 0.711,-0.624 1.245,-0.624 0.553,0 0.98,0.208 1.276,0.624 0.298,0.419 0.445,1.023 0.445,1.817 M -44.91,-6.261 c -0.279,-0.139 -0.665,-0.266 -1.162,-0.385 -0.457,-0.1 -0.686,-0.151 -0.686,-0.151 -0.358,-0.099 -0.617,-0.228 -0.777,-0.386 -0.139,-0.217 -0.208,-0.436 -0.208,-0.654 0,-0.298 0.089,-0.536 0.269,-0.714 0.178,-0.16 0.437,-0.238 0.775,-0.238 0.555,0 0.995,0.159 1.312,0.476 0.317,0.318 0.477,0.752 0.477,1.308 z m 0.475,-3.65 c -0.416,-0.219 -0.858,-0.354 -1.325,-0.404 -0.468,-0.048 -0.879,-0.074 -1.237,-0.074 -0.715,0 -1.34,0.193 -1.876,0.581 -0.535,0.386 -0.805,1.026 -0.805,1.92 0,0.835 0.244,1.429 0.732,1.787 0.485,0.358 1.107,0.597 1.861,0.716 0.099,0 0.218,0.013 0.357,0.043 0.14,0.03 0.298,0.056 0.478,0.076 0.874,0.118 1.31,0.376 1.31,0.772 0,0.3 -0.155,0.493 -0.462,0.582 -0.307,0.089 -0.589,0.134 -0.848,0.134 -0.277,0 -0.525,-0.04 -0.744,-0.121 -0.218,-0.081 -0.376,-0.234 -0.475,-0.457 h -1.992 c 0.078,0.616 0.355,1.124 0.832,1.523 0.536,0.457 1.3,0.686 2.29,0.686 1.112,0 1.944,-0.189 2.501,-0.567 0.576,-0.396 0.863,-0.952 0.863,-1.666 v -2.706 c 0,-0.795 -0.145,-1.414 -0.432,-1.86 -0.289,-0.446 -0.632,-0.768 -1.028,-0.965 m -15.83,8.929 -0.003,-2.384 c 0.216,0.375 0.534,0.682 0.95,0.921 0.358,0.198 0.795,0.298 1.31,0.298 0.932,0 1.694,-0.387 2.29,-1.162 0.594,-0.773 0.891,-1.774 0.891,-3.005 0,-1.229 -0.297,-2.229 -0.891,-3.003 -0.297,-0.378 -0.701,-0.651 -1.206,-0.818 -0.505,-0.17 -1.005,-0.254 -1.5,-0.254 -0.952,0 -1.836,0.249 -2.648,0.744 -0.813,0.498 -1.219,1.45 -1.219,2.859 V 0.03 h 1.013 c 0.279,0 0.515,-0.098 0.716,-0.297 0.198,-0.2 0.297,-0.436 0.297,-0.715 m 3.382,-5.244 c 0,0.716 -0.148,1.273 -0.445,1.671 -0.297,0.416 -0.703,0.624 -1.216,0.624 -0.553,0 -0.98,-0.197 -1.277,-0.596 -0.297,-0.416 -0.444,-0.983 -0.444,-1.699 0,-0.832 0.139,-1.439 0.416,-1.817 0.295,-0.416 0.711,-0.624 1.244,-0.624 0.554,0 0.98,0.208 1.277,0.624 0.297,0.419 0.445,1.023 0.445,1.817 M -73.125,0 h 1.668 l 3.717,-10.236 h -2.229 l -0.685,2.117 h -3.987 l -0.654,-2.117 h -2.232 l 3.392,9.55 C -73.958,-0.229 -73.62,0 -73.125,0 m 0.478,-2.054 -1.43,-4.343 h 2.856 z m 24.298,7.883 c -1.397,-0.624 -0.735,-2.6 0.883,-2.08 1.25,0.52 0.441,2.704 -0.883,2.08 m 41.702,0 c -1.398,-0.624 -0.663,-2.6 0.882,-2.08 1.25,0.52 0.515,2.704 -0.882,2.08 m -44.938,0 C -52.1,5.621 -52.541,5.205 -52.32,4.373 c 0.147,-0.52 0.882,-0.832 1.618,-0.624 1.25,0.52 0.514,2.601 -0.883,2.08 m 19.343,0 c -1.397,-0.624 -0.735,-2.6 0.883,-2.08 1.25,0.416 0.588,2.704 -0.883,2.08 m 31.993,16.333 c 0,-3.745 -0.147,-11.339 0.073,-14.044 C 0.339,7.91 1.737,7.494 1.884,8.326 1.957,8.43 1.957,8.846 1.957,8.95 v 12.38 c 0,0.729 0.147,1.457 -0.662,1.664 -1.103,0.105 -1.544,0.105 -1.544,-0.832 m -25.741,0.729 c -0.221,-0.832 -0.074,-11.652 -0.148,-13.42 0,-2.081 1.177,-1.561 4.634,-1.561 2.648,0 17.21,-0.208 17.872,0.104 0.588,0.416 0.441,1.249 0.441,2.081 v 5.826 c 0,0.832 0.441,1.559 -2.059,1.143 -0.147,-0.624 -0.074,-4.785 -0.074,-5.825 0,-1.457 -0.073,-1.249 -2.427,-1.249 l -16.18,0.105 v 9.571 c 0,0.936 0.074,2.496 -0.147,3.121 -0.515,0.104 -1.471,0.312 -1.912,0.104 m -41.996,-3.329 v -5.93 c 0,-1.664 0,-3.329 -0.735,-4.577 -0.515,-0.832 -1.986,-2.081 -3.31,-2.185 -1.176,-0.209 -3.015,0.416 -3.971,1.456 -0.368,0.313 -0.809,1.04 -1.03,1.664 -0.514,1.353 0.221,1.561 -1.912,1.561 -0.736,0 -0.588,-0.416 -0.441,-1.04 0.367,-2.081 1.765,-4.058 3.603,-4.89 2.942,-1.352 6.031,-0.832 8.017,1.353 0.809,0.832 0.662,0.936 2.133,0.936 h 34.935 c 2.353,0 1.912,0.416 1.912,4.161 v 4.993 c -0.442,0.105 -1.03,0.105 -1.471,0.105 -0.809,0 -0.662,-0.208 -0.662,-1.145 0,-0.936 0.147,-5.201 -0.074,-5.826 -0.367,-0.416 -6.104,-0.208 -7.207,-0.208 h -8.899 c -1.766,0 -1.471,-0.208 -1.471,3.121 v 2.81 c 0,0.624 0.147,1.04 -0.442,1.143 -0.441,0.105 -1.25,0.208 -1.544,-0.103 -0.221,-0.208 -0.147,-5.618 -0.147,-6.866 h -15.224 c 0,1.976 0.294,11.756 -0.074,12.796 -0.294,0.103 -0.809,0.103 -1.177,0.103 -1.103,0 -0.809,0 -0.809,-3.432"
             style="fill:#000000;fill-opacity:1;fill-rule:evenodd;stroke:none"
             id="path59" /></g><g
           id="g73"
           transform="translate(45.8262,66.2279)"><path
             d="m 0,0 h 1.206 c 0.045,-0.347 0.177,-0.589 0.395,-0.727 0.229,-0.162 0.545,-0.242 0.947,-0.242 0.355,0 0.625,0.063 0.809,0.189 0.184,0.127 0.274,0.31 0.274,0.551 0,0.367 -0.515,0.666 -1.547,0.896 L 2.05,0.683 c 0,0 -0.046,0.011 -0.138,0.035 C 1.328,0.845 0.938,0.977 0.743,1.113 0.514,1.239 0.354,1.424 0.261,1.665 0.147,1.871 0.089,2.135 0.089,2.457 c 0,0.563 0.196,1.004 0.586,1.325 0.391,0.311 0.959,0.465 1.705,0.465 0.701,0 1.24,-0.16 1.619,-0.482 C 4.388,3.408 4.595,2.944 4.617,2.37 H 3.93 C 3.665,2.37 3.476,2.49 3.361,2.732 3.304,2.848 3.223,2.945 3.121,3.026 2.914,3.177 2.633,3.251 2.278,3.251 1.933,3.251 1.686,3.188 1.538,3.062 1.366,2.936 1.279,2.758 1.279,2.528 1.279,2.219 1.611,1.988 2.274,1.84 2.47,1.782 2.612,1.747 2.704,1.735 2.91,1.667 3.089,1.612 3.245,1.572 3.399,1.533 3.523,1.501 3.614,1.479 3.775,1.409 3.936,1.341 4.097,1.271 4.326,1.134 4.505,0.956 4.631,0.737 4.758,0.496 4.821,0.232 4.821,-0.055 4.821,-0.674 4.614,-1.155 4.2,-1.501 3.787,-1.822 3.201,-1.982 2.443,-1.982 1.664,-1.982 1.079,-1.816 0.688,-1.483 0.264,-1.149 0.035,-0.655 0,0"
             style="fill:#000000;fill-opacity:1;fill-rule:nonzero;stroke:none"
             id="path75" /></g><g
           id="g77"
           transform="translate(53.5752,67.3421)"><path
             d="m 0,0 c 0,-0.665 0.144,-1.17 0.43,-1.516 0.286,-0.354 0.695,-0.532 1.222,-0.532 0.517,0 0.924,0.178 1.222,0.532 0.298,0.37 0.447,0.873 0.447,1.516 0,0.644 -0.149,1.154 -0.447,1.533 C 2.576,1.889 2.169,2.066 1.652,2.066 1.125,2.066 0.716,1.889 0.43,1.533 0.144,1.177 0,0.665 0,0 m -1.225,0 c 0,0.965 0.253,1.728 0.758,2.29 C 0.073,2.852 0.78,3.133 1.652,3.133 2.514,3.133 3.22,2.852 3.771,2.29 4.288,1.716 4.546,0.953 4.546,0 4.546,-0.951 4.288,-1.709 3.771,-2.27 3.242,-2.82 2.536,-3.097 1.652,-3.097 0.756,-3.097 0.05,-2.82 -0.467,-2.27 -0.972,-1.721 -1.225,-0.963 -1.225,0"
             style="fill:#000000;fill-opacity:1;fill-rule:nonzero;stroke:none"
             id="path79" /></g><g
           id="g81"
           transform="translate(59.9624,64.3861)"><path
             d="M 0,0 V 5.302 C 0,5.474 0.061,5.62 0.181,5.74 0.301,5.861 0.448,5.921 0.622,5.921 H 4.304 V 4.908 H 1.208 V 3.63 H 3.513 V 3.235 C 3.513,3.063 3.453,2.918 3.332,2.798 3.212,2.678 3.066,2.617 2.893,2.617 H 1.208 V 0 Z"
             style="fill:#000000;fill-opacity:1;fill-rule:nonzero;stroke:none"
             id="path83" /></g><g
           id="g85"
           transform="translate(67.7935,64.3861)"><path
             d="m 0,0 v 4.873 h -1.754 v 0.43 c 0,0.172 0.06,0.317 0.18,0.437 0.12,0.121 0.266,0.181 0.439,0.181 H 2.963 V 4.873 H 1.225 V 0 Z"
             style="fill:#000000;fill-opacity:1;fill-rule:nonzero;stroke:none"
             id="path87" /></g><path
           d="M 17.458,67.548 H 39.172 V 66.367 H 17.458 Z"
           style="fill:#cb1f25;fill-opacity:1;fill-rule:evenodd;stroke:none"
           id="path89" /><path
           d="M 75.992,67.312 H 97.706 V 66.131 H 75.992 Z"
           style="fill:#cb1f25;fill-opacity:1;fill-rule:evenodd;stroke:none"
           id="path91" /></g><g
         id="logo"
         style="display:inline"><g
           id="g61"
           transform="translate(129.8452,113.017)"><path
             d="m 0,0 c -4.05,-0.205 -7.159,-0.716 -10.775,-1.637 -0.868,-0.204 -1.591,-0.409 -2.387,-0.716 -1.374,-0.409 -1.084,-0.306 -1.663,-1.534 -0.651,-1.432 -1.229,-2.967 -1.736,-4.501 -3.319,-10.525 -2.756,-22.108 2.557,-31.332 0.035,-0.062 0.071,-0.132 0.108,-0.185 0.245,-0.368 1.679,-1.179 2.577,-1.572 -0.835,1.111 -1.321,1.934 -2.132,3.425 -0.94,1.739 -2.748,5.933 -2.965,7.979 l 9.401,-0.205 c 0,5.115 -0.072,10.229 -0.072,15.241 0,2.558 -0.362,4.91 1.157,6.444 1.591,1.535 3.905,1.126 6.58,1.126 5.28,-0.102 8.968,0.102 12.872,-2.455 3.255,-2.148 5.135,-6.343 4.846,-10.332 H 6.581 c -0.145,-4.602 1.952,-7.773 5.206,-9.103 1.953,-0.819 3.761,-0.921 6.147,-0.921 l 4.685,0.138 c 1.332,1.514 3.218,3.888 4.3,5.847 0.027,0.458 0.044,0.917 0.054,1.38 0.145,6.853 -0.868,12.377 -3.326,18.515 -0.506,1.431 -0.506,1.636 -1.302,1.84 C 15.837,-0.613 7.593,0.512 0,0 m 23.367,-34.974 c -0.319,-0.768 -0.645,-1.498 -0.928,-2.102 0.801,0.658 1.583,1.365 2.213,2.005 0.355,0.93 0.671,1.883 0.947,2.854 -0.702,-0.928 -1.463,-1.864 -2.232,-2.757 m -5.686,-9.248 c -1.835,-2.031 -3.928,-3.779 -6.183,-5.184 -1.013,-0.716 -6.147,-3.683 -7.232,-3.478 -0.795,0.102 -3.109,1.227 -3.832,1.636 -0.346,0.173 -0.686,0.346 -1.021,0.52 -0.791,-0.125 -1.585,-0.213 -2.381,-0.254 0.464,-0.292 0.946,-0.584 1.449,-0.879 1.229,-0.716 2.821,-1.432 4.267,-1.944 2.024,-0.716 1.591,-0.818 4.556,0.512 5.799,2.535 10.539,6.545 13.913,11.571 -1.255,-0.995 -2.543,-1.897 -3.536,-2.5 m -21.632,-4.479 c -0.169,0.116 -0.34,0.234 -0.509,0.355 -0.79,0.008 -1.579,0.04 -2.364,0.101 0.175,-0.142 0.351,-0.283 0.531,-0.423 0.723,-0.042 1.531,-0.053 2.342,-0.033 m -4.836,4.18 -0.108,0.126 c -0.139,0.15 -0.274,0.298 -0.408,0.446 -0.693,0.054 -1.383,0.138 -2.079,0.344 0.116,-0.15 0.127,-0.162 0.246,-0.309 l 0.17,-0.209 c 0.722,-0.166 1.448,-0.297 2.179,-0.398"
             style="fill:#cb1f25;fill-opacity:1;fill-rule:evenodd;stroke:none"
             id="path63" /></g><g
           id="g65"
           transform="translate(148.2134,92.763)"><path
             d="m 0,0 h -11.788 c -0.036,-0.619 -0.021,-0.929 0.026,-1.387 z"
             style="fill:#6d0b21;fill-opacity:1;fill-rule:evenodd;stroke:none"
             id="path67" /></g><g
           id="g69"
           transform="translate(122.7246,99.9144)"><path
             d="m 0,0 -0.803,-17.155 0.909,-0.021 z"
             style="fill:#6d0b21;fill-opacity:1;fill-rule:evenodd;stroke:none"
             id="path71" /></g><g
           id="g93"
           transform="translate(105.6636,88.8089)"><path
             d="m 0,0 c -1.387,0 -2.51,1.124 -2.51,2.51 0,1.183 0.818,2.176 1.92,2.44 0.003,10e-4 0.009,0 0.011,0.003 L -0.527,5.1 C 1.451,9.923 3.915,13.949 6.672,17.258 6.178,15.53 5.728,13.789 5.354,12.034 3.923,9.802 2.65,7.309 1.592,4.53 L 1.567,4.471 C 1.567,4.47 1.57,4.469 1.571,4.468 2.143,4.008 2.51,3.302 2.51,2.51 2.51,1.124 1.386,0 0,0 m 14.668,24.487 c 12.246,8.136 26.381,6.316 31.054,-0.98 -1.228,0.304 -2.449,0.581 -3.664,0.829 -4.247,3.529 -12.249,4.307 -20.27,1.281 -2.386,-0.226 -4.757,-0.599 -7.12,-1.13 M 0,1.352 c -0.64,0 -1.159,0.518 -1.159,1.158 0,0.64 0.519,1.159 1.159,1.159 C 0.64,3.669 1.158,3.15 1.158,2.51 1.158,1.87 0.64,1.352 0,1.352"
             style="fill:#005f9a;fill-opacity:1;fill-rule:evenodd;stroke:none"
             id="path95" /></g><g
           id="g97"
           transform="translate(162.0645,88.8539)"><path
             d="m 0,0 c 0.981,0 1.777,-0.796 1.777,-1.777 0,-0.982 -0.796,-1.778 -1.777,-1.778 -0.097,0 -0.192,0.008 -0.284,0.023 -14.055,-26.95 -50.599,-29.129 -54.274,-12.146 7.124,-15.141 39.123,-12.157 53.301,12.644 -0.322,0.322 -0.52,0.766 -0.52,1.257 C -1.777,-0.796 -0.982,0 0,0 m 0,-0.957 c 0.453,0 0.82,-0.367 0.82,-0.82 0,-0.453 -0.367,-0.821 -0.82,-0.821 -0.453,0 -0.821,0.368 -0.821,0.821 0,0.453 0.368,0.82 0.821,0.82"
             style="fill:#cb1f25;fill-opacity:1;fill-rule:evenodd;stroke:none"
             id="path99" /></g><g
           id="g101"
           transform="translate(105.2823,98.1664)"><path
             d="m 0,0 c -0.857,0 -1.551,0.694 -1.551,1.551 0,0.856 0.694,1.551 1.551,1.551 0.084,0 0.167,-0.007 0.248,-0.02 C 12.511,26.598 44.398,28.498 47.604,13.68 41.388,26.892 13.467,24.287 1.097,2.647 1.377,2.366 1.551,1.979 1.551,1.551 1.551,0.694 0.856,0 0,0 m 0,0.835 c -0.396,0 -0.716,0.32 -0.716,0.716 0,0.395 0.32,0.716 0.716,0.716 0.395,0 0.716,-0.321 0.716,-0.716 C 0.716,1.155 0.395,0.835 0,0.835"
             style="fill:#cb1f25;fill-opacity:1;fill-rule:evenodd;stroke:none"
             id="path103" /></g><g
           id="g105"
           transform="translate(110.5576,80.431)"><path
             d="M 0,0 C 0.762,-7.654 5.189,-11.42 13.474,-11.094 5.993,-9.924 1.681,-6.074 0,0"
             style="fill:#cb1f25;fill-opacity:1;fill-rule:evenodd;stroke:none"
             id="path107" /></g><g
           id="g109"
           transform="translate(161.5986,99.6136)"><path
             d="m 0,0 c 1.602,0 2.899,-1.298 2.899,-2.899 0,-1.368 -0.946,-2.514 -2.22,-2.82 C 0.675,-5.72 0.667,-5.718 0.667,-5.722 L 0.608,-5.89 c -17.763,-43.331 -69.4,-31.199 -51.57,-4.358 l 0.279,-4.275 c -10.24,-21.977 35.02,-27.012 48.845,9.29 l 0.031,0.067 -0.006,0.005 c -0.661,0.532 -1.086,1.347 -1.086,2.262 C -2.899,-1.298 -1.601,0 0,0 m 0,-1.562 c 0.739,0 1.338,-0.598 1.338,-1.337 0,-0.74 -0.599,-1.338 -1.338,-1.338 -0.739,0 -1.338,0.598 -1.338,1.338 0,0.739 0.599,1.337 1.338,1.337"
             style="fill:#005f9a;fill-opacity:1;fill-rule:evenodd;stroke:none"
             id="path111" /></g></g></g></g></svg>
